<svg xmlns="http://www.w3.org/2000/svg" width="305" height="331" viewBox="0 0 305 331">
<g>
<path d="M 158.70 237.75 C158.04,238.62 154.41,239.00 146.85,239.00 C146.49,239.00 146.13,239.00 145.78,239.00 C140.04,239.01 137.26,239.01 135.76,237.62 C134.26,236.24 134.04,233.48 133.42,227.97 L 132.71 221.74 L 126.38 218.87 C122.89,217.29 119.60,216.00 119.06,216.00 C118.52,216.00 115.25,217.80 111.79,219.99 C108.33,222.19 104.66,223.99 103.64,223.99 C101.27,224.00 86.00,209.23 86.00,206.93 C86.00,205.99 88.03,202.96 90.50,200.21 C95.51,194.64 95.87,192.94 93.06,188.33 C91.36,185.54 90.43,185.08 85.31,184.46 C82.12,184.07 78.02,183.15 76.22,182.42 L 72.94 181.08 L 73.22 168.82 L 73.50 156.56 L 80.65 155.49 C88.85,154.26 91.00,152.90 91.00,148.95 C91.00,146.76 89.67,144.98 85.00,140.92 C81.70,138.05 79.00,135.17 79.00,134.51 C79.00,132.95 91.94,115.00 93.07,115.00 C93.55,115.00 96.49,116.12 99.60,117.50 C106.10,120.38 108.95,120.59 112.96,118.52 C117.52,116.16 120.00,112.28 120.00,107.49 C120.00,99.18 120.84,97.33 125.36,95.65 C132.77,92.89 136.86,92.56 139.04,94.54 C140.12,95.51 141.00,97.27 141.00,98.43 C141.00,102.58 143.74,105.00 148.43,105.00 C153.38,105.00 154.37,104.12 155.91,98.35 C156.52,96.07 157.75,93.93 158.63,93.59 C160.23,92.98 172.01,95.47 175.10,97.08 C176.24,97.67 176.90,100.02 177.38,105.17 C178.15,113.51 179.35,115.79 184.30,118.46 L 187.85 120.38 L 194.90 117.54 C201.02,115.08 202.16,114.89 203.63,116.10 C205.54,117.69 216.00,133.61 216.00,134.94 C216.00,135.42 213.30,137.99 210.00,140.65 C199.45,149.18 202.26,153.35 220.50,156.21 C222.35,156.50 222.52,157.41 222.78,168.11 L 222.78 168.23 C222.97,175.77 223.05,179.07 221.44,180.77 C220.18,182.09 217.91,182.44 213.85,183.08 C204.85,184.49 204.33,184.73 202.05,188.42 C199.14,193.14 199.43,194.47 204.58,199.99 C207.86,203.49 209.00,205.43 208.57,206.78 C208.24,207.82 204.18,212.38 199.55,216.90 L 191.13 225.12 L 188.31 223.50 C186.77,222.62 183.70,220.80 181.50,219.46 C176.58,216.48 174.65,216.42 168.19,219.11 L 163.12 221.22 L 161.38 228.86 C160.42,233.06 159.21,237.06 158.70,237.75 ZM 137.33 200.10 C143.52,201.70 156.36,200.44 162.50,197.63 C169.03,194.64 175.83,187.89 179.77,180.50 C182.10,176.12 182.43,174.33 182.46,166.00 C182.50,157.06 182.30,156.13 179.10,150.23 C173.18,139.31 163.35,132.63 151.35,131.38 C134.60,129.63 120.45,138.82 114.98,155.00 C108.67,173.69 119.48,195.49 137.33,200.10 ZM 69.46 321.36 C63.49,323.39 53.75,324.16 48.36,323.02 C37.09,320.64 26.73,311.70 23.59,301.66 C21.21,294.06 21.73,281.55 24.71,274.88 C27.64,268.31 33.27,262.50 39.84,259.28 C44.89,256.80 46.59,256.50 55.52,256.50 C64.83,256.50 66.02,256.73 72.22,259.79 C81.20,264.21 86.39,270.19 89.16,279.29 C91.58,287.27 91.32,296.66 88.48,303.77 C86.19,309.48 75.62,319.26 69.46,321.36 ZM 266.68 321.50 C259.04,324.68 246.24,324.20 238.83,320.45 C231.98,316.99 227.00,310.08 227.00,304.04 L 227.00 301.00 L 233.07 301.00 C239.45,301.00 243.00,302.20 243.00,304.36 C243.00,307.09 247.88,310.28 252.76,310.75 C256.92,311.15 258.03,310.84 260.80,308.52 C264.40,305.48 264.93,302.15 262.21,299.69 C261.22,298.79 255.93,296.88 250.46,295.44 C237.36,291.99 232.36,289.08 229.85,283.39 C225.76,274.15 229.06,263.57 237.24,259.69 C248.79,254.21 265.42,255.43 272.86,262.30 C275.85,265.06 279.72,271.07 280.13,273.59 C280.71,277.10 279.16,278.00 272.51,278.00 L 266.13 278.00 L 263.30 273.78 C259.76,268.51 255.95,267.19 249.83,269.13 C246.04,270.33 245.46,270.90 245.19,273.69 C244.73,278.45 247.40,280.38 258.10,283.02 C268.51,285.58 277.15,290.46 279.57,295.14 C281.38,298.64 281.40,305.12 279.62,309.28 C277.79,313.52 271.45,319.50 266.68,321.50 ZM 139.41 321.47 C132.12,324.52 117.92,324.10 111.33,320.65 C105.24,317.46 99.00,308.54 99.00,303.03 C99.00,301.35 99.64,301.00 102.75,301.01 C110.60,301.03 114.02,302.13 115.56,305.12 C117.63,309.12 122.36,311.33 127.57,310.74 C133.04,310.13 138.00,306.66 138.00,303.45 C138.00,300.25 134.91,298.37 126.43,296.40 C110.35,292.68 105.15,289.92 101.99,283.43 C99.65,278.65 99.42,272.03 101.45,268.10 C103.61,263.91 109.43,259.25 114.24,257.83 C116.58,257.14 122.10,256.56 126.50,256.55 C133.30,256.53 135.39,256.95 140.31,259.36 C146.28,262.28 150.22,266.81 151.55,272.26 C152.60,276.56 150.67,278.00 143.89,278.00 C138.16,278.00 137.99,277.92 136.60,274.58 C134.54,269.65 130.98,267.63 125.44,268.25 C117.99,269.09 114.96,273.65 118.49,278.69 C119.58,280.24 122.48,281.39 129.24,282.93 C147.24,287.05 153.51,292.16 153.35,302.62 C153.24,310.55 147.74,317.99 139.41,321.47 ZM 203.40 321.13 C198.77,323.20 187.25,324.27 182.00,323.13 C176.20,321.86 171.41,319.09 168.29,315.19 C165.48,311.67 163.00,306.16 163.00,303.43 C163.00,301.66 168.05,300.73 173.33,301.53 C176.69,302.03 178.03,302.78 178.86,304.60 C180.37,307.92 185.78,310.99 190.10,311.00 C194.88,311.00 200.40,307.28 200.81,303.78 C201.24,300.09 198.05,298.25 186.52,295.53 C171.11,291.90 165.01,286.42 165.00,276.22 C165.00,269.61 166.81,265.18 170.93,261.71 C180.24,253.88 200.55,254.46 209.34,262.80 C212.97,266.24 216.21,272.52 215.81,275.33 C215.53,277.28 214.81,277.53 208.78,277.79 L 202.06 278.09 L 200.69 274.79 C198.82,270.33 196.77,268.84 191.75,268.29 C183.48,267.39 178.02,272.33 181.47,277.59 C182.92,279.80 184.33,280.34 201.00,285.02 C206.00,286.42 212.00,290.07 214.22,293.08 C216.91,296.70 218.00,302.40 216.83,306.65 C215.54,311.31 208.57,318.83 203.40,321.13 ZM 51.75 309.56 C59.23,311.54 64.88,309.48 70.25,302.83 C72.63,299.89 73.32,297.92 73.72,292.83 C74.33,285.15 72.84,279.16 69.27,274.91 C61.63,265.83 46.36,267.41 41.79,277.75 C38.61,284.93 38.29,293.48 40.97,299.71 C43.74,306.14 45.75,307.98 51.75,309.56 Z" fill="rgb(1,1,1)"/>
<path d="M 261.65 157.47 C261.17,158.73 258.86,159.00 248.50,159.00 C239.37,159.00 235.81,158.66 235.46,157.75 C235.03,156.62 236.18,152.17 240.70,137.50 C241.84,133.77 242.36,125.94 242.73,106.75 C243.00,92.59 242.83,81.02 242.36,81.05 C241.89,81.08 238.12,82.35 234.00,83.87 L 226.50 86.64 L 225.99 100.07 C225.71,107.46 225.11,114.08 224.66,114.78 C224.08,115.69 222.30,114.13 218.56,109.44 C211.99,101.20 200.71,91.89 191.96,87.48 C165.12,73.96 134.36,73.76 106.51,86.91 C94.19,92.73 83.87,101.30 73.80,114.08 L 71.11 117.50 L 71.05 102.46 L 71.00 87.42 L 58.25 82.12 C51.24,79.20 39.88,74.47 33.00,71.60 C26.12,68.72 20.50,65.82 20.50,65.14 C20.50,63.86 31.06,58.71 65.50,43.21 C76.50,38.26 94.50,30.16 105.50,25.21 C138.08,10.55 146.64,7.00 149.41,7.00 C150.86,7.00 155.07,8.41 158.77,10.13 C166.37,13.67 186.71,22.77 207.50,31.95 C215.20,35.35 226.23,40.33 232.00,43.01 C237.77,45.70 250.31,51.42 259.85,55.73 C269.39,60.04 277.27,64.00 277.35,64.53 C277.43,65.07 274.35,66.96 270.50,68.74 C266.65,70.52 261.92,72.77 260.00,73.74 L 256.50 75.51 L 256.79 105.50 C257.06,133.94 257.21,136.03 259.66,145.72 C261.08,151.34 261.97,156.63 261.65,157.47 Z" fill="rgb(170,33,41)"/>
<path d="M 0.00 165.50 L 0.00 0.00 L 152.50 0.00 L 305.00 0.00 L 305.00 165.50 L 305.00 331.00 L 152.50 331.00 L 0.00 331.00 L 0.00 165.50 ZM 69.46 321.36 C75.62,319.26 86.19,309.48 88.48,303.77 C91.32,296.66 91.58,287.27 89.16,279.29 C86.39,270.19 81.20,264.21 72.22,259.79 C66.02,256.73 64.83,256.50 55.52,256.50 C46.59,256.50 44.89,256.80 39.84,259.28 C33.27,262.50 27.64,268.31 24.71,274.88 C21.73,281.55 21.21,294.06 23.59,301.66 C26.73,311.70 37.09,320.64 48.36,323.02 C53.75,324.16 63.49,323.39 69.46,321.36 ZM 139.41 321.47 C147.74,317.99 153.24,310.55 153.35,302.62 C153.51,292.16 147.24,287.05 129.24,282.93 C122.48,281.39 119.58,280.24 118.49,278.69 C114.96,273.65 117.99,269.09 125.44,268.25 C130.98,267.63 134.54,269.65 136.60,274.58 C137.99,277.92 138.16,278.00 143.89,278.00 C150.67,278.00 152.60,276.56 151.55,272.26 C150.22,266.81 146.28,262.28 140.31,259.36 C135.39,256.95 133.30,256.53 126.50,256.55 C122.10,256.56 116.58,257.14 114.24,257.83 C109.43,259.25 103.61,263.91 101.45,268.10 C99.42,272.03 99.65,278.65 101.99,283.43 C105.15,289.92 110.35,292.68 126.43,296.40 C134.91,298.37 138.00,300.25 138.00,303.45 C138.00,306.66 133.04,310.13 127.57,310.74 C122.36,311.33 117.63,309.12 115.56,305.12 C114.02,302.13 110.60,301.03 102.75,301.01 C99.64,301.00 99.00,301.35 99.00,303.03 C99.00,308.54 105.24,317.46 111.33,320.65 C117.92,324.10 132.12,324.52 139.41,321.47 ZM 203.40 321.13 C208.57,318.83 215.54,311.31 216.83,306.65 C218.00,302.40 216.91,296.70 214.22,293.08 C212.00,290.07 206.00,286.42 201.00,285.02 C184.33,280.34 182.92,279.80 181.47,277.59 C178.02,272.33 183.48,267.39 191.75,268.29 C196.77,268.84 198.82,270.33 200.69,274.79 L 202.06 278.09 L 208.78 277.79 C214.81,277.53 215.53,277.28 215.81,275.33 C216.21,272.52 212.97,266.24 209.34,262.80 C200.55,254.46 180.24,253.88 170.93,261.71 C166.81,265.18 165.00,269.61 165.00,276.22 C165.01,286.42 171.11,291.90 186.52,295.53 C198.05,298.25 201.24,300.09 200.81,303.78 C200.40,307.28 194.88,311.00 190.10,311.00 C185.78,310.99 180.37,307.92 178.86,304.60 C178.03,302.78 176.69,302.03 173.33,301.53 C168.05,300.73 163.00,301.66 163.00,303.43 C163.00,306.16 165.48,311.67 168.29,315.19 C171.41,319.09 176.20,321.86 182.00,323.13 C187.25,324.27 198.77,323.20 203.40,321.13 ZM 266.68 321.50 C271.45,319.50 277.79,313.52 279.62,309.28 C281.40,305.12 281.38,298.64 279.57,295.14 C277.15,290.46 268.51,285.58 258.10,283.02 C247.40,280.38 244.73,278.45 245.19,273.69 C245.46,270.90 246.04,270.33 249.83,269.13 C255.95,267.19 259.76,268.51 263.30,273.78 L 266.13 278.00 L 272.51 278.00 C279.16,278.00 280.71,277.10 280.13,273.59 C279.72,271.07 275.85,265.06 272.86,262.30 C265.42,255.43 248.79,254.21 237.24,259.69 C229.06,263.57 225.76,274.15 229.85,283.39 C232.36,289.08 237.36,291.99 250.46,295.44 C255.93,296.88 261.22,298.79 262.21,299.69 C264.93,302.15 264.40,305.48 260.80,308.52 C258.03,310.84 256.92,311.15 252.76,310.75 C247.88,310.28 243.00,307.09 243.00,304.36 C243.00,302.20 239.45,301.00 233.07,301.00 L 227.00 301.00 L 227.00 304.04 C227.00,310.08 231.98,316.99 238.83,320.45 C246.24,324.20 259.04,324.68 266.68,321.50 ZM 158.70 237.75 C159.21,237.06 160.42,233.06 161.38,228.86 L 163.12 221.22 L 168.19 219.11 C174.65,216.42 176.58,216.48 181.50,219.46 C183.70,220.80 186.77,222.62 188.31,223.50 L 191.13 225.12 L 199.55 216.90 C204.18,212.38 208.24,207.82 208.57,206.78 C209.00,205.43 207.86,203.49 204.58,199.99 C199.43,194.47 199.14,193.14 202.05,188.42 C204.33,184.73 204.85,184.49 213.85,183.08 C223.13,181.62 223.11,181.66 222.78,168.11 C222.52,157.41 222.35,156.50 220.50,156.21 C202.26,153.35 199.45,149.18 210.00,140.65 C213.30,137.99 216.00,135.42 216.00,134.94 C216.00,133.61 205.54,117.69 203.63,116.10 C202.16,114.89 201.02,115.08 194.90,117.54 L 187.85 120.38 L 184.30 118.46 C179.35,115.79 178.15,113.51 177.38,105.17 C176.90,100.02 176.24,97.67 175.10,97.08 C172.01,95.47 160.23,92.98 158.63,93.59 C157.75,93.93 156.52,96.07 155.91,98.35 C154.37,104.12 153.38,105.00 148.43,105.00 C143.74,105.00 141.00,102.58 141.00,98.43 C141.00,97.27 140.12,95.51 139.04,94.54 C136.86,92.56 132.77,92.89 125.36,95.65 C120.84,97.33 120.00,99.18 120.00,107.49 C120.00,112.28 117.52,116.16 112.96,118.52 C108.95,120.59 106.10,120.38 99.60,117.50 C96.49,116.12 93.55,115.00 93.07,115.00 C91.94,115.00 79.00,132.95 79.00,134.51 C79.00,135.17 81.70,138.05 85.00,140.92 C89.67,144.98 91.00,146.76 91.00,148.95 C91.00,152.90 88.85,154.26 80.65,155.49 L 73.50 156.56 L 73.22 168.82 L 72.94 181.08 L 76.22 182.42 C78.02,183.15 82.12,184.07 85.31,184.46 C90.43,185.08 91.36,185.54 93.06,188.33 C95.87,192.94 95.51,194.64 90.50,200.21 C88.03,202.96 86.00,205.99 86.00,206.93 C86.00,209.23 101.27,224.00 103.64,223.99 C104.66,223.99 108.33,222.19 111.79,219.99 C115.25,217.80 118.52,216.00 119.06,216.00 C119.60,216.00 122.89,217.29 126.38,218.87 L 132.71 221.74 L 133.42 227.97 C134.70,239.34 134.29,239.00 146.85,239.00 C154.41,239.00 158.04,238.62 158.70,237.75 ZM 261.65 157.47 C261.97,156.63 261.08,151.34 259.66,145.72 C257.21,136.03 257.06,133.94 256.79,105.50 L 256.50 75.51 L 260.00 73.74 C261.92,72.77 266.65,70.52 270.50,68.74 C274.35,66.96 277.43,65.07 277.35,64.53 C277.27,64.00 269.39,60.04 259.85,55.73 C250.31,51.42 237.77,45.70 232.00,43.01 C226.23,40.33 215.20,35.35 207.50,31.95 C186.71,22.77 166.37,13.67 158.77,10.13 C155.07,8.41 150.86,7.00 149.41,7.00 C146.64,7.00 138.08,10.55 105.50,25.21 C94.50,30.16 76.50,38.26 65.50,43.21 C31.06,58.71 20.50,63.86 20.50,65.14 C20.50,65.82 26.12,68.72 33.00,71.60 C39.88,74.47 51.24,79.20 58.25,82.12 L 71.00 87.42 L 71.05 102.46 L 71.11 117.50 L 73.80 114.08 C83.87,101.30 94.19,92.73 106.51,86.91 C134.36,73.76 165.12,73.96 191.96,87.48 C200.71,91.89 211.99,101.20 218.56,109.44 C222.30,114.13 224.08,115.69 224.66,114.78 C225.11,114.08 225.71,107.46 225.99,100.07 L 226.50 86.64 L 234.00 83.87 C238.12,82.35 241.89,81.08 242.36,81.05 C242.83,81.02 243.00,92.59 242.73,106.75 C242.36,125.94 241.84,133.77 240.70,137.50 C236.18,152.17 235.03,156.62 235.46,157.75 C235.81,158.66 239.37,159.00 248.50,159.00 C258.86,159.00 261.17,158.73 261.65,157.47 ZM 51.75 309.56 C45.75,307.98 43.74,306.14 40.97,299.71 C38.29,293.48 38.61,284.93 41.79,277.75 C46.36,267.41 61.63,265.83 69.27,274.91 C72.84,279.16 74.33,285.15 73.72,292.83 C73.32,297.92 72.63,299.89 70.25,302.83 C64.88,309.48 59.23,311.54 51.75,309.56 ZM 137.33 200.10 C119.48,195.49 108.67,173.69 114.98,155.00 C120.45,138.82 134.60,129.63 151.35,131.38 C163.35,132.63 173.18,139.31 179.10,150.23 C182.30,156.13 182.50,157.06 182.46,166.00 C182.43,174.33 182.10,176.12 179.77,180.50 C175.83,187.89 169.03,194.64 162.50,197.63 C156.36,200.44 143.52,201.70 137.33,200.10 Z" fill="rgb(253,253,253)"/>
</g>
</svg>